<svg xmlns="http://www.w3.org/2000/svg" viewBox="0 0 1400 902" font-family="Segoe UI, Helvetica Neue, Arial, sans-serif" role="img" aria-label="Arkitekturdiagram för Ärendehantering och myndighetsutövning"><defs><marker id="arr" viewBox="0 0 10 10" refX="9" refY="5" markerWidth="7" markerHeight="7" orient="auto-start-reverse"><path d="M 0 1 L 9 5 L 0 9 z" fill="#7d99a1"/></marker></defs><rect width="1400" height="902" fill="#ffffff"/><text x="700.0" y="34" text-anchor="middle" font-size="22" font-weight="bold" fill="#00434f">Lösningsarkitektur — Ärendehantering och myndighetsutövning</text><text x="700.0" y="60" text-anchor="middle" font-size="13" fill="#46595f">Pilar visar anrop. Alla verksamhetsanrop går från webbappens backend via kommunens API-plattform (WSO2).</text><rect x="490.0" y="84" rx="10" width="420" height="74" fill="#dbeafe" stroke="#2563eb" stroke-width="2"/><text x="700.0" y="117.0" text-anchor="middle" font-size="17" font-weight="bold" fill="#1c2b33">Webb-app</text><text x="700.0" y="136.0" text-anchor="middle" font-size="11.5" fill="#46595f">web-app-draken-public</text><rect x="1130" y="91" rx="10" width="240" height="60" fill="#eef1f4" stroke="#64748b" stroke-width="2" stroke-dasharray="7,5"/><text x="1250.0" y="117.0" text-anchor="middle" font-size="15" font-weight="bold" fill="#1c2b33">SAML IdP</text><text x="1250.0" y="136.0" text-anchor="middle" font-size="11.5" fill="#46595f">inloggning med SSO</text><path d="M 910.0 121.0 L 1130 121.0" fill="none" stroke="#7d99a1" stroke-width="1.6" stroke-dasharray="6,5" marker-end="url(#arr)"/><text x="1020.0" y="111.0" text-anchor="middle" font-size="11" fill="#64748b">autentisering</text><path d="M 700.0 158 L 700.0 210" fill="none" stroke="#2563eb" stroke-width="1.6" marker-end="url(#arr)"/><text x="712.0" y="188" font-size="11" fill="#46595f">OAuth2 (CLIENT_KEY/CLIENT_SECRET)</text><rect x="380.0" y="210" rx="10" width="640" height="58" fill="#eef1f4" stroke="#005a70" stroke-width="2"/><text x="700.0" y="235.0" text-anchor="middle" font-size="16" font-weight="bold" fill="#1c2b33">API-plattform (WSO2)</text><text x="700.0" y="254.0" text-anchor="middle" font-size="11.5" fill="#46595f">api.sundsvall.se — gemensam ingång till alla verksamhets-API:er</text><rect x="40" y="324" rx="12" width="1320" height="284" fill="#f4faf6" stroke="#15803d" stroke-width="1.5" opacity="0.55"/><text x="56" y="348" font-size="13" font-weight="bold" letter-spacing="1" fill="#1c2b33">VERKSAMHETS-API:ER — anropas av webb-appen via API-plattformen</text><rect x="159.5" y="364" rx="10" width="205" height="64" fill="#bbe3cd" stroke="#15803d" stroke-width="2"/><text x="262.0" y="392.0" text-anchor="middle" font-size="14" font-weight="bold" fill="#1c2b33">SupportManagement 14.9</text><text x="262.0" y="411.0" text-anchor="middle" font-size="11.5" fill="#46595f">Kärnan i den generiska ärendehan…</text><path d="M 700.0 268 C 700.0 316.0, 262.0 316.0, 262.0 364" fill="none" stroke="#7d99a1" stroke-width="1.6" marker-end="url(#arr)"/><rect x="378.5" y="364" rx="10" width="205" height="64" fill="#e8f5ee" stroke="#15803d" stroke-width="2"/><text x="481.0" y="392.0" text-anchor="middle" font-size="14" font-weight="bold" fill="#1c2b33">CaseData 13.0</text><text x="481.0" y="411.0" text-anchor="middle" font-size="11.5" fill="#46595f">Kärnan i myndighetsärenden – utr…</text><path d="M 700.0 268 C 700.0 316.0, 481.0 316.0, 481.0 364" fill="none" stroke="#7d99a1" stroke-width="1.6" marker-end="url(#arr)"/><rect x="597.5" y="364" rx="10" width="205" height="64" fill="#e8f5ee" stroke="#15803d" stroke-width="2"/><text x="700.0" y="392.0" text-anchor="middle" font-size="14" font-weight="bold" fill="#1c2b33">Contract 9.0</text><text x="700.0" y="411.0" text-anchor="middle" font-size="11.5" fill="#46595f">Avtal i mark- och exploateringsä…</text><path d="M 700.0 268 C 700.0 316.0, 700.0 316.0, 700.0 364" fill="none" stroke="#7d99a1" stroke-width="1.6" marker-end="url(#arr)"/><rect x="816.5" y="364" rx="10" width="205" height="64" fill="#e8f5ee" stroke="#15803d" stroke-width="2"/><text x="919.0" y="392.0" text-anchor="middle" font-size="14" font-weight="bold" fill="#1c2b33">Estateinfo 2.2</text><text x="919.0" y="411.0" text-anchor="middle" font-size="11.5" fill="#46595f">Fastighetsinformation i fastighe…</text><path d="M 700.0 268 C 700.0 316.0, 919.0 316.0, 919.0 364" fill="none" stroke="#7d99a1" stroke-width="1.6" marker-end="url(#arr)"/><rect x="1035.5" y="364" rx="10" width="205" height="64" fill="#e8f5ee" stroke="#15803d" stroke-width="2"/><text x="1138.0" y="392.0" text-anchor="middle" font-size="14" font-weight="bold" fill="#1c2b33">Messaging 7.10</text><text x="1138.0" y="411.0" text-anchor="middle" font-size="11.5" fill="#46595f">Meddelanden till sökande och and…</text><path d="M 700.0 268 C 700.0 316.0, 1138.0 316.0, 1138.0 364" fill="none" stroke="#7d99a1" stroke-width="1.6" marker-end="url(#arr)"/><rect x="159.5" y="444" rx="10" width="205" height="64" fill="#e8f5ee" stroke="#15803d" stroke-width="2"/><text x="262.0" y="472.0" text-anchor="middle" font-size="14" font-weight="bold" fill="#1c2b33">PartyAssets 6.5</text><text x="262.0" y="491.0" text-anchor="middle" font-size="11.5" fill="#46595f">Register över utfärdade parkerin…</text><path d="M 700.0 268 C 700.0 356.0, 262.0 356.0, 262.0 444" fill="none" stroke="#7d99a1" stroke-width="1.6" marker-end="url(#arr)"/><rect x="378.5" y="444" rx="10" width="205" height="64" fill="#e8f5ee" stroke="#15803d" stroke-width="2"/><text x="481.0" y="472.0" text-anchor="middle" font-size="14" font-weight="bold" fill="#1c2b33">JsonSchema 1.0</text><text x="481.0" y="491.0" text-anchor="middle" font-size="11.5" fill="#46595f">Validering av strukturerade ansö…</text><path d="M 700.0 268 C 700.0 356.0, 481.0 356.0, 481.0 444" fill="none" stroke="#7d99a1" stroke-width="1.6" marker-end="url(#arr)"/><rect x="597.5" y="444" rx="10" width="205" height="64" fill="#e8f5ee" stroke="#15803d" stroke-width="2"/><text x="700.0" y="472.0" text-anchor="middle" font-size="14" font-weight="bold" fill="#1c2b33">BillingPreprocessor 4.5</text><text x="700.0" y="491.0" text-anchor="middle" font-size="11.5" fill="#46595f">Faktureringsunderlag (används av…</text><path d="M 700.0 268 C 700.0 356.0, 700.0 356.0, 700.0 444" fill="none" stroke="#7d99a1" stroke-width="1.6" marker-end="url(#arr)"/><rect x="816.5" y="444" rx="10" width="205" height="64" fill="#e8f5ee" stroke="#15803d" stroke-width="2"/><text x="919.0" y="472.0" text-anchor="middle" font-size="14" font-weight="bold" fill="#1c2b33">BillingDataCollector 2.1</text><text x="919.0" y="491.0" text-anchor="middle" font-size="11.5" fill="#46595f">Insamling av faktureringsdata i…</text><path d="M 700.0 268 C 700.0 356.0, 919.0 356.0, 919.0 444" fill="none" stroke="#7d99a1" stroke-width="1.6" marker-end="url(#arr)"/><rect x="1035.5" y="444" rx="10" width="205" height="64" fill="#e8f5ee" stroke="#15803d" stroke-width="2"/><text x="1138.0" y="472.0" text-anchor="middle" font-size="14" font-weight="bold" fill="#1c2b33">CaseStatus 4.3</text><text x="1138.0" y="491.0" text-anchor="middle" font-size="11.5" fill="#46595f">Statusinformation om ärenden</text><path d="M 700.0 268 C 700.0 356.0, 1138.0 356.0, 1138.0 444" fill="none" stroke="#7d99a1" stroke-width="1.6" marker-end="url(#arr)"/><rect x="378.5" y="524" rx="10" width="205" height="64" fill="#e8f5ee" stroke="#15803d" stroke-width="2"/><text x="481.0" y="552.0" text-anchor="middle" font-size="14" font-weight="bold" fill="#1c2b33">Relations 1.1</text><text x="481.0" y="571.0" text-anchor="middle" font-size="11.5" fill="#46595f">Relationer mellan ärenden</text><path d="M 700.0 268 C 700.0 396.0, 481.0 396.0, 481.0 524" fill="none" stroke="#7d99a1" stroke-width="1.6" marker-end="url(#arr)"/><rect x="597.5" y="524" rx="10" width="205" height="64" fill="#e8f5ee" stroke="#15803d" stroke-width="2"/><text x="700.0" y="552.0" text-anchor="middle" font-size="14" font-weight="bold" fill="#1c2b33">Templating 2.1</text><text x="700.0" y="571.0" text-anchor="middle" font-size="11.5" fill="#46595f">Mallar för brev, beslut och andr…</text><path d="M 700.0 268 C 700.0 396.0, 700.0 396.0, 700.0 524" fill="none" stroke="#7d99a1" stroke-width="1.6" marker-end="url(#arr)"/><rect x="816.5" y="524" rx="10" width="205" height="64" fill="#e8f5ee" stroke="#15803d" stroke-width="2"/><text x="919.0" y="552.0" text-anchor="middle" font-size="14" font-weight="bold" fill="#1c2b33">Company 1.0</text><text x="919.0" y="571.0" text-anchor="middle" font-size="11.5" fill="#46595f">Företagsuppslag i mark- och expl…</text><path d="M 700.0 268 C 700.0 396.0, 919.0 396.0, 919.0 524" fill="none" stroke="#7d99a1" stroke-width="1.6" marker-end="url(#arr)"/><rect x="40" y="642" rx="12" width="1320" height="124" fill="#fdf9ef" stroke="#b45309" stroke-width="1.5" opacity="0.55"/><text x="56" y="666" font-size="13" font-weight="bold" letter-spacing="1" fill="#1c2b33">MASTER-DATA-API:ER — uppslag av personer, medarbetare och organisationer</text><rect x="159.5" y="682" rx="10" width="205" height="64" fill="#fdf3d7" stroke="#b45309" stroke-width="2"/><text x="262.0" y="710.0" text-anchor="middle" font-size="14" font-weight="bold" fill="#1c2b33">Citizen 3.0</text><text x="262.0" y="729.0" text-anchor="middle" font-size="11.5" fill="#46595f">Uppgifter om invånare</text><path d="M 700.0 268 C 700.0 475.0, 262.0 475.0, 262.0 682" fill="none" stroke="#7d99a1" stroke-width="1.6" marker-end="url(#arr)"/><rect x="378.5" y="682" rx="10" width="205" height="64" fill="#fdf3d7" stroke="#b45309" stroke-width="2"/><text x="481.0" y="710.0" text-anchor="middle" font-size="14" font-weight="bold" fill="#1c2b33">Employee 2.0</text><text x="481.0" y="729.0" text-anchor="middle" font-size="11.5" fill="#46595f">Uppgifter om medarbetare</text><path d="M 700.0 268 C 700.0 475.0, 481.0 475.0, 481.0 682" fill="none" stroke="#7d99a1" stroke-width="1.6" marker-end="url(#arr)"/><rect x="597.5" y="682" rx="10" width="205" height="64" fill="#fdf3d7" stroke="#b45309" stroke-width="2"/><text x="700.0" y="710.0" text-anchor="middle" font-size="14" font-weight="bold" fill="#1c2b33">LegalEntity 2.0</text><text x="700.0" y="729.0" text-anchor="middle" font-size="11.5" fill="#46595f">Uppgifter om organisationer och…</text><path d="M 700.0 268 C 700.0 475.0, 700.0 475.0, 700.0 682" fill="none" stroke="#7d99a1" stroke-width="1.6" marker-end="url(#arr)"/><rect x="816.5" y="682" rx="10" width="205" height="64" fill="#fdf3d7" stroke="#b45309" stroke-width="2"/><text x="919.0" y="710.0" text-anchor="middle" font-size="14" font-weight="bold" fill="#1c2b33">Party 2.1</text><text x="919.0" y="729.0" text-anchor="middle" font-size="11.5" fill="#46595f">Id-översättning av parter i ären…</text><path d="M 700.0 268 C 700.0 475.0, 919.0 475.0, 919.0 682" fill="none" stroke="#7d99a1" stroke-width="1.6" marker-end="url(#arr)"/><rect x="1035.5" y="682" rx="10" width="205" height="64" fill="#fdf3d7" stroke="#b45309" stroke-width="2"/><text x="1138.0" y="710.0" text-anchor="middle" font-size="14" font-weight="bold" fill="#1c2b33">ActiveDirectory 2.0</text><text x="1138.0" y="729.0" text-anchor="middle" font-size="11.5" fill="#46595f">Uppslag av användare och behörig…</text><path d="M 700.0 268 C 700.0 475.0, 1138.0 475.0, 1138.0 682" fill="none" stroke="#7d99a1" stroke-width="1.6" marker-end="url(#arr)"/><text x="40" y="794" font-size="12" fill="#46595f">• Samma kodbas bygger samtliga webbar; vilken webb som byggs och vilka funktioner den har styrs av konfiguration och funktionsflaggor, inte av separata kodgrenar.</text><text x="40" y="814" font-size="12" fill="#46595f">• Parkeringstillstånd skickar beslut som sms och digital brevlåda; e-post används inte.</text><text x="40" y="834" font-size="12" fill="#46595f">• Fakturering används av vissa verksamheter (t.ex. Lön och pension) och styrs med funktionsflaggor.</text><rect x="40" y="862" width="26" height="16" rx="4" fill="#dbeafe" stroke="#2563eb" stroke-width="1.5"/><text x="73" y="875" font-size="12.5" fill="#1c2b33">Webb-app (denna applikation)</text><rect x="294.6" y="862" width="26" height="16" rx="4" fill="#bbe3cd" stroke="#15803d" stroke-width="1.5"/><text x="327.6" y="875" font-size="12.5" fill="#1c2b33">Kärn-API</text><rect x="415.20000000000005" y="862" width="26" height="16" rx="4" fill="#e8f5ee" stroke="#15803d" stroke-width="1.5"/><text x="448.20000000000005" y="875" font-size="12.5" fill="#1c2b33">Verksamhets-API</text><rect x="582.7" y="862" width="26" height="16" rx="4" fill="#fdf3d7" stroke="#b45309" stroke-width="1.5"/><text x="615.7" y="875" font-size="12.5" fill="#1c2b33">Master-data</text><rect x="723.4000000000001" y="862" width="26" height="16" rx="4" fill="#eef1f4" stroke="#64748b" stroke-width="1.5" stroke-dasharray="5,4"/><text x="756.4000000000001" y="875" font-size="12.5" fill="#1c2b33">Extern/gemensam tjänst</text></svg>